<?xml version="1.0" standalone="no"?>
<!DOCTYPE svg PUBLIC "-//W3C//DTD SVG 20010904//EN"
 "http://www.w3.org/TR/2001/REC-SVG-20010904/DTD/svg10.dtd">
<svg version="1.0" xmlns="http://www.w3.org/2000/svg"
 width="300.000000pt" height="300.000000pt" viewBox="0 0 300.000000 300.000000"
 preserveAspectRatio="xMidYMid meet">
<metadata>
Created by potrace 1.11, written by Peter Selinger 2001-2013
</metadata>
<g transform="translate(0.000000,300.000000) scale(0.100000,-0.100000)"
fill="#000000" stroke="none">
<path d="M1013 2905 c-55 -27 -99 -65 -168 -150 -117 -143 -159 -173 -349
-250 -102 -42 -165 -82 -200 -128 -20 -28 -40 -71 -38 -87 0 -3 -4 -12 -8 -21
-5 -9 -12 -54 -15 -100 -15 -226 -24 -258 -118 -411 -42 -68 -83 -147 -93
-176 -33 -105 -7 -191 117 -382 20 -31 45 -80 56 -111 20 -51 25 -89 38 -256
15 -202 66 -264 290 -353 158 -63 201 -94 304 -220 166 -203 235 -224 506
-151 138 37 197 33 420 -23 33 -8 94 -14 136 -13 69 2 81 5 132 39 32 22 93
81 144 140 116 136 137 154 246 200 51 21 108 46 127 54 106 46 156 86 189
152 27 55 32 84 46 267 11 140 23 175 112 317 139 221 140 296 2 511 -85 132
-103 184 -114 322 -12 155 -17 191 -36 241 -26 69 -96 132 -186 169 -228 94
-270 122 -374 245 -95 114 -118 137 -172 166 -75 41 -150 41 -303 2 -158 -41
-246 -41 -405 0 -143 37 -220 39 -286 7z m311 -1036 c20 -62 34 -114 32 -116
-3 -3 -35 5 -73 18 -90 30 -254 31 -303 2 -63 -36 -70 -65 -69 -309 1 -240 5
-261 59 -289 18 -9 57 -15 104 -15 104 0 113 12 111 151 -1 93 -4 109 -28 152
-15 26 -27 50 -27 52 0 3 70 5 155 5 85 0 155 -2 155 -5 0 -3 -9 -23 -19 -44
-17 -32 -19 -56 -18 -162 2 -68 6 -129 9 -135 4 -6 -36 -53 -90 -106 l-97 -96
-177 0 -177 -1 -94 95 -95 94 0 308 0 307 101 103 102 102 201 0 201 0 37
-111z m919 2 c20 -60 37 -113 37 -119 0 -5 -33 2 -72 17 -64 23 -86 26 -176
24 -84 -1 -109 -5 -136 -22 -59 -37 -65 -68 -63 -316 2 -157 6 -226 15 -242
21 -37 64 -53 145 -53 104 0 112 10 113 143 1 94 -1 107 -27 160 l-29 57 155
0 c85 0 155 -2 155 -5 0 -3 -9 -22 -19 -43 -16 -31 -18 -56 -16 -162 1 -69 4
-131 6 -137 2 -7 -38 -55 -89 -107 l-93 -94 -180 0 -180 1 -92 93 -92 94 -1
308 -1 307 100 103 101 102 201 0 201 0 37 -109z"/>
</g>
</svg>
